<svg width="127" height="45" viewBox="0 0 127 45" fill="none" xmlns="http://www.w3.org/2000/svg">
<path d="M22.5 3.75C32.8556 3.75 41.25 12.1444 41.25 22.5C41.2524 25.3151 40.6197 28.0945 39.3991 30.6312C38.1784 33.1679 36.4013 35.3965 34.2 37.1512L33.7519 37.5H37.5C37.9779 37.5005 38.4376 37.6835 38.7851 38.0116C39.1326 38.3397 39.3417 38.788 39.3697 39.2651C39.3977 39.7422 39.2425 40.212 38.9358 40.5784C38.629 40.9449 38.1939 41.1804 37.7194 41.2369L37.5 41.25H22.5C12.1444 41.25 3.75 32.8556 3.75 22.5C3.75 12.1444 12.1444 3.75 22.5 3.75ZM22.5 7.5C18.5218 7.5 14.7064 9.08035 11.8934 11.8934C9.08035 14.7064 7.5 18.5218 7.5 22.5C7.5 26.4782 9.08035 30.2936 11.8934 33.1066C14.7064 35.9196 18.5218 37.5 22.5 37.5C26.4782 37.5 30.2936 35.9196 33.1066 33.1066C35.9196 30.2936 37.5 26.4782 37.5 22.5C37.5 18.5218 35.9196 14.7064 33.1066 11.8934C30.2936 9.08035 26.4782 7.5 22.5 7.5ZM22.5 26.25C23.4946 26.25 24.4484 26.6451 25.1516 27.3484C25.8549 28.0516 26.25 29.0054 26.25 30C26.25 30.9946 25.8549 31.9484 25.1516 32.6516C24.4484 33.3549 23.4946 33.75 22.5 33.75C21.5054 33.75 20.5516 33.3549 19.8484 32.6516C19.1451 31.9484 18.75 30.9946 18.75 30C18.75 29.0054 19.1451 28.0516 19.8484 27.3484C20.5516 26.6451 21.5054 26.25 22.5 26.25ZM15 18.75C15.9946 18.75 16.9484 19.1451 17.6516 19.8484C18.3549 20.5516 18.75 21.5054 18.75 22.5C18.75 23.4946 18.3549 24.4484 17.6516 25.1516C16.9484 25.8549 15.9946 26.25 15 26.25C14.0054 26.25 13.0516 25.8549 12.3483 25.1516C11.6451 24.4484 11.25 23.4946 11.25 22.5C11.25 21.5054 11.6451 20.5516 12.3483 19.8484C13.0516 19.1451 14.0054 18.75 15 18.75ZM30 18.75C30.9946 18.75 31.9484 19.1451 32.6516 19.8484C33.3549 20.5516 33.75 21.5054 33.75 22.5C33.75 23.4946 33.3549 24.4484 32.6516 25.1516C31.9484 25.8549 30.9946 26.25 30 26.25C29.0054 26.25 28.0516 25.8549 27.3484 25.1516C26.6451 24.4484 26.25 23.4946 26.25 22.5C26.25 21.5054 26.6451 20.5516 27.3484 19.8484C28.0516 19.1451 29.0054 18.75 30 18.75ZM22.5 11.25C23.4946 11.25 24.4484 11.6451 25.1516 12.3483C25.8549 13.0516 26.25 14.0054 26.25 15C26.25 15.9946 25.8549 16.9484 25.1516 17.6516C24.4484 18.3549 23.4946 18.75 22.5 18.75C21.5054 18.75 20.5516 18.3549 19.8484 17.6516C19.1451 16.9484 18.75 15.9946 18.75 15C18.75 14.0054 19.1451 13.0516 19.8484 12.3483C20.5516 11.6451 21.5054 11.25 22.5 11.25Z" fill="url(#paint0_linear_18_57)"/>
<path d="M46.17 22.556C46.17 19.5227 47.002 17.226 48.666 15.666C50.3473 14.0887 52.7307 13.3 55.816 13.3C58.9013 13.3 61.2847 14.0887 62.966 15.666C64.6473 17.2433 65.488 19.54 65.488 22.556C65.488 24.5667 65.1067 26.2653 64.344 27.652C63.5987 29.0213 62.5067 30.0613 61.068 30.772L65.15 34.906H58.312L55.556 31.812C52.54 31.76 50.2173 30.954 48.588 29.394C46.976 27.8167 46.17 25.5373 46.17 22.556ZM59.612 21.724C59.612 20.4587 59.2827 19.4533 58.624 18.708C57.9827 17.9627 57.0467 17.59 55.816 17.59C54.5853 17.59 53.6493 17.9627 53.008 18.708C52.3667 19.4533 52.046 20.4587 52.046 21.724V23.388C52.046 24.6533 52.3667 25.6587 53.008 26.404C53.6493 27.1493 54.5853 27.522 55.816 27.522C57.0467 27.522 57.9827 27.1493 58.624 26.404C59.2827 25.6587 59.612 24.6533 59.612 23.388V21.724ZM68.5822 13.612H83.0382V17.902H74.3282V20.97H81.8162V25.078H74.3282V31.5H68.5822V13.612ZM85.9451 31.5V12.65H91.1191V31.5H85.9451ZM101.519 17.46C104.033 17.46 105.948 18.0493 107.265 19.228C108.6 20.4067 109.267 22.2093 109.267 24.636V25.52H98.9713C98.9713 26.508 99.188 27.2533 99.6213 27.756C100.072 28.2587 100.774 28.51 101.727 28.51C102.594 28.51 103.227 28.328 103.625 27.964C104.041 27.6 104.249 27.1147 104.249 26.508H109.267C109.267 28.172 108.635 29.472 107.369 30.408C106.104 31.344 104.258 31.812 101.831 31.812C99.2833 31.812 97.3073 31.2227 95.9033 30.044C94.4993 28.848 93.7973 27.0453 93.7973 24.636C93.7973 22.2787 94.482 20.4933 95.8513 19.28C97.2207 18.0667 99.11 17.46 101.519 17.46ZM101.727 20.762C100.098 20.762 99.188 21.5333 98.9973 23.076H104.041C104.041 22.3653 103.833 21.802 103.417 21.386C103.019 20.97 102.455 20.762 101.727 20.762ZM126.73 31.5H120.698L118.098 27.184H117.994L115.368 31.5H109.622L114.9 24.22L110.142 17.772H116.226L118.41 21.412H118.514L120.698 17.772H126.418L121.582 24.35L126.73 31.5Z" fill="white" fill-opacity="0.87"/>
<defs>
<linearGradient id="paint0_linear_18_57" x1="22.5" y1="3.75" x2="22.5" y2="41.25" gradientUnits="userSpaceOnUse">
<stop offset="0.0885417" stop-color="#C3083F"/>
<stop offset="0.307292" stop-color="#A3093D"/>
<stop offset="0.543691" stop-color="#950B3C"/>
<stop offset="0.784668" stop-color="#750935"/>
<stop offset="0.994792" stop-color="#6F2232"/>
</linearGradient>
</defs>
</svg>
