<svg width="45" height="45" viewBox="0 0 45 45" fill="none" xmlns="http://www.w3.org/2000/svg">
<path d="M22.5 3.75C32.8556 3.75 41.25 12.1444 41.25 22.5C41.2524 25.3151 40.6197 28.0945 39.3991 30.6312C38.1784 33.1679 36.4013 35.3965 34.2 37.1512L33.7519 37.5H37.5C37.9779 37.5005 38.4376 37.6835 38.7851 38.0116C39.1326 38.3397 39.3417 38.788 39.3697 39.2651C39.3977 39.7422 39.2425 40.212 38.9358 40.5784C38.629 40.9449 38.1939 41.1804 37.7194 41.2369L37.5 41.25H22.5C12.1444 41.25 3.75 32.8556 3.75 22.5C3.75 12.1444 12.1444 3.75 22.5 3.75ZM22.5 7.5C18.5218 7.5 14.7064 9.08035 11.8934 11.8934C9.08035 14.7064 7.5 18.5218 7.5 22.5C7.5 26.4782 9.08035 30.2936 11.8934 33.1066C14.7064 35.9196 18.5218 37.5 22.5 37.5C26.4782 37.5 30.2936 35.9196 33.1066 33.1066C35.9196 30.2936 37.5 26.4782 37.5 22.5C37.5 18.5218 35.9196 14.7064 33.1066 11.8934C30.2936 9.08035 26.4782 7.5 22.5 7.5ZM22.5 26.25C23.4946 26.25 24.4484 26.6451 25.1516 27.3484C25.8549 28.0516 26.25 29.0054 26.25 30C26.25 30.9946 25.8549 31.9484 25.1516 32.6516C24.4484 33.3549 23.4946 33.75 22.5 33.75C21.5054 33.75 20.5516 33.3549 19.8484 32.6516C19.1451 31.9484 18.75 30.9946 18.75 30C18.75 29.0054 19.1451 28.0516 19.8484 27.3484C20.5516 26.6451 21.5054 26.25 22.5 26.25ZM15 18.75C15.9946 18.75 16.9484 19.1451 17.6516 19.8484C18.3549 20.5516 18.75 21.5054 18.75 22.5C18.75 23.4946 18.3549 24.4484 17.6516 25.1516C16.9484 25.8549 15.9946 26.25 15 26.25C14.0054 26.25 13.0516 25.8549 12.3483 25.1516C11.6451 24.4484 11.25 23.4946 11.25 22.5C11.25 21.5054 11.6451 20.5516 12.3483 19.8484C13.0516 19.1451 14.0054 18.75 15 18.75ZM30 18.75C30.9946 18.75 31.9484 19.1451 32.6516 19.8484C33.3549 20.5516 33.75 21.5054 33.75 22.5C33.75 23.4946 33.3549 24.4484 32.6516 25.1516C31.9484 25.8549 30.9946 26.25 30 26.25C29.0054 26.25 28.0516 25.8549 27.3484 25.1516C26.6451 24.4484 26.25 23.4946 26.25 22.5C26.25 21.5054 26.6451 20.5516 27.3484 19.8484C28.0516 19.1451 29.0054 18.75 30 18.75ZM22.5 11.25C23.4946 11.25 24.4484 11.6451 25.1516 12.3483C25.8549 13.0516 26.25 14.0054 26.25 15C26.25 15.9946 25.8549 16.9484 25.1516 17.6516C24.4484 18.3549 23.4946 18.75 22.5 18.75C21.5054 18.75 20.5516 18.3549 19.8484 17.6516C19.1451 16.9484 18.75 15.9946 18.75 15C18.75 14.0054 19.1451 13.0516 19.8484 12.3483C20.5516 11.6451 21.5054 11.25 22.5 11.25Z" fill="url(#paint0_linear_18_58)"/>
<defs>
<linearGradient id="paint0_linear_18_58" x1="22.5" y1="3.75" x2="22.5" y2="41.25" gradientUnits="userSpaceOnUse">
<stop offset="0.0885417" stop-color="#C3083F"/>
<stop offset="0.307292" stop-color="#A3093D"/>
<stop offset="0.543691" stop-color="#950B3C"/>
<stop offset="0.784668" stop-color="#750935"/>
<stop offset="0.994792" stop-color="#6F2232"/>
</linearGradient>
</defs>
</svg>
