<svg width="35" height="35" viewBox="0 0 35 35" fill="none" xmlns="http://www.w3.org/2000/svg">
<path d="M29.6268 20.8633C27.4794 21.4654 25.2104 21.4852 23.0529 20.9205C20.8953 20.3557 18.927 19.2269 17.3499 17.6499C15.7729 16.0729 14.6441 14.1045 14.0794 11.947C13.5146 9.78943 13.5344 7.52045 14.1365 5.37305C12.0194 5.96232 10.0936 7.09601 8.55096 8.66118C7.00832 10.2264 5.90267 12.1684 5.34415 14.2938C4.78563 16.4193 4.79373 18.654 5.36764 20.7754C5.94156 22.8967 7.06125 24.8307 8.6152 26.3846C10.1691 27.9386 12.1031 29.0583 14.2245 29.6322C16.3458 30.2061 18.5805 30.2142 20.706 29.6557C22.8314 29.0972 24.7735 27.9915 26.3387 26.4489C27.9038 24.9062 29.0375 22.9804 29.6268 20.8633V20.8633Z" stroke="black" stroke-width="2" stroke-linecap="round" stroke-linejoin="round"/>
</svg>
